<?xml version="1.0" encoding="UTF-8"?>
<!DOCTYPE svg PUBLIC "-//W3C//DTD SVG 1.1//EN" "http://www.w3.org/Graphics/SVG/1.1/DTD/svg11.dtd">
<!-- Creator: CorelDRAW 2019 (64-Bit) -->
<svg xmlns="http://www.w3.org/2000/svg" xml:space="preserve" width="4.2211mm" height="4.2212mm" version="1.1" style="shape-rendering:geometricPrecision; text-rendering:geometricPrecision; image-rendering:optimizeQuality; fill-rule:evenodd; clip-rule:evenodd"
viewBox="0 0 1.1 1.1"
 xmlns:xlink="http://www.w3.org/1999/xlink">
 <defs>
  <style type="text/css">
   <![CDATA[
    .fil0 {fill:#BE9788;fill-rule:nonzero}
   ]]>
  </style>
 </defs>
 <g id="_2390173940432">
  <path class="fil0" d="M0.55 0c-0.15,0 -0.17,0 -0.23,0 -0.06,0 -0.1,0.01 -0.13,0.03 -0.04,0.01 -0.07,0.03 -0.1,0.06 -0.03,0.03 -0.05,0.06 -0.06,0.1 -0.01,0.04 -0.02,0.08 -0.03,0.13 -0,0.06 -0,0.08 -0,0.23 0,0.15 0,0.17 0,0.23 0,0.06 0.01,0.1 0.03,0.13 0.01,0.04 0.03,0.07 0.06,0.1 0.03,0.03 0.06,0.05 0.1,0.06 0.04,0.01 0.08,0.02 0.13,0.03 0.06,0 0.08,0 0.23,0 0.15,0 0.17,-0 0.23,-0 0.06,-0 0.1,-0.01 0.13,-0.03 0.04,-0.01 0.07,-0.03 0.1,-0.06 0.03,-0.03 0.05,-0.06 0.06,-0.1 0.01,-0.04 0.02,-0.08 0.03,-0.13 0,-0.06 0,-0.08 0,-0.23 0,-0.15 -0,-0.17 -0,-0.23 -0,-0.06 -0.01,-0.1 -0.03,-0.13 -0.01,-0.04 -0.03,-0.07 -0.06,-0.1 -0.03,-0.03 -0.06,-0.05 -0.1,-0.06 -0.04,-0.01 -0.08,-0.02 -0.13,-0.03 -0.06,-0 -0.08,-0 -0.23,-0zm0 0.1c0.15,0 0.16,0 0.22,0 0.05,0 0.08,0.01 0.1,0.02 0.03,0.01 0.04,0.02 0.06,0.04 0.02,0.02 0.03,0.04 0.04,0.06 0.01,0.02 0.02,0.05 0.02,0.1 0,0.06 0,0.08 0,0.22 0,0.15 -0,0.16 -0,0.22 -0,0.05 -0.01,0.08 -0.02,0.1 -0.01,0.03 -0.02,0.04 -0.04,0.06 -0.02,0.02 -0.04,0.03 -0.06,0.04 -0.02,0.01 -0.05,0.02 -0.1,0.02 -0.06,0 -0.08,0 -0.22,0 -0.15,0 -0.16,-0 -0.22,-0 -0.05,-0 -0.08,-0.01 -0.1,-0.02 -0.03,-0.01 -0.04,-0.02 -0.06,-0.04 -0.02,-0.02 -0.03,-0.04 -0.04,-0.06 -0.01,-0.02 -0.02,-0.05 -0.02,-0.1 -0,-0.06 -0,-0.08 -0,-0.22 0,-0.15 0,-0.16 0,-0.22 0,-0.05 0.01,-0.08 0.02,-0.1 0.01,-0.03 0.02,-0.04 0.04,-0.06 0.02,-0.02 0.04,-0.03 0.06,-0.04 0.02,-0.01 0.05,-0.02 0.1,-0.02 0.06,-0 0.08,-0 0.22,-0z"/>
  <path class="fil0" d="M0.55 0.73c-0.1,0 -0.18,-0.08 -0.18,-0.18 0,-0.1 0.08,-0.18 0.18,-0.18 0.1,0 0.18,0.08 0.18,0.18 0,0.1 -0.08,0.18 -0.18,0.18zm0 -0.47c-0.16,0 -0.28,0.13 -0.28,0.28 0,0.16 0.13,0.28 0.28,0.28 0.16,0 0.28,-0.13 0.28,-0.28 0,-0.16 -0.13,-0.28 -0.28,-0.28z"/>
  <path class="fil0" d="M0.91 0.26c0,0.04 -0.03,0.07 -0.07,0.07 -0.04,0 -0.07,-0.03 -0.07,-0.07 0,-0.04 0.03,-0.07 0.07,-0.07 0.04,0 0.07,0.03 0.07,0.07z"/>
 </g>
</svg>
