<?xml version="1.0" encoding="UTF-8"?>
<!DOCTYPE svg PUBLIC "-//W3C//DTD SVG 1.1//EN" "http://www.w3.org/Graphics/SVG/1.1/DTD/svg11.dtd">
<!-- Creator: CorelDRAW 2019 (64-Bit) -->
<svg xmlns="http://www.w3.org/2000/svg" xml:space="preserve" width="3.6454mm" height="3.5109mm" version="1.1" style="shape-rendering:geometricPrecision; text-rendering:geometricPrecision; image-rendering:optimizeQuality; fill-rule:evenodd; clip-rule:evenodd"
viewBox="0 0 0.8 0.77"
 xmlns:xlink="http://www.w3.org/1999/xlink">
 <defs>
  <style type="text/css">
   <![CDATA[
    .fil0 {fill:#BE9788;fill-rule:nonzero}
   ]]>
  </style>
 </defs>
 <g id="_2354292488160">
  <polygon class="fil0" points="0.02,0.77 0.18,0.77 0.18,0.26 0.02,0.26 "/>
  <path class="fil0" d="M0.1 0.19c0.05,0 0.1,-0.04 0.1,-0.1 0,-0.05 -0.04,-0.1 -0.1,-0.1 -0.05,0 -0.1,0.04 -0.1,0.1 0,0.05 0.04,0.1 0.1,0.1z"/>
  <path class="fil0" d="M0.45 0.5c0,-0.07 0.03,-0.12 0.1,-0.12 0.06,0 0.09,0.04 0.09,0.12 0,0.07 0,0.27 0,0.27l0.17 0c0,0 0,-0.19 0,-0.33 0,-0.14 -0.08,-0.21 -0.2,-0.21 -0.11,0 -0.16,0.09 -0.16,0.09l0 -0.07 -0.16 0 0 0.52 0.16 0c0,0 0,-0.19 0,-0.27z"/>
 </g>
</svg>
