<?xml version="1.0" encoding="UTF-8"?>
<!DOCTYPE svg PUBLIC "-//W3C//DTD SVG 1.1//EN" "http://www.w3.org/Graphics/SVG/1.1/DTD/svg11.dtd">
<!-- Creator: CorelDRAW 2019 (64-Bit) -->
<svg xmlns="http://www.w3.org/2000/svg" xml:space="preserve" width="3.5392mm" height="4.5716mm" version="1.1" style="shape-rendering:geometricPrecision; text-rendering:geometricPrecision; image-rendering:optimizeQuality; fill-rule:evenodd; clip-rule:evenodd"
viewBox="0 0 0.76 0.99"
 xmlns:xlink="http://www.w3.org/1999/xlink">
 <defs>
  <style type="text/css">
   <![CDATA[
    .fil0 {fill:#BE9788;fill-rule:nonzero}
   ]]>
  </style>
 </defs>
 <path class="fil0" d="M0.12 0.57c0.01,0.01 0.02,0 0.03,-0.01 0,-0.01 0.01,-0.04 0.01,-0.05 0,-0.01 0,-0.02 -0.01,-0.03 -0.02,-0.03 -0.04,-0.06 -0.04,-0.11 0,-0.14 0.11,-0.27 0.28,-0.27 0.15,0 0.24,0.09 0.24,0.22 0,0.16 -0.07,0.3 -0.18,0.3 -0.06,0 -0.1,-0.05 -0.09,-0.11 0.02,-0.07 0.05,-0.15 0.05,-0.2 0,-0.05 -0.02,-0.09 -0.08,-0.09 -0.06,0 -0.11,0.06 -0.11,0.15 0,0.05 0.02,0.09 0.02,0.09 0,0 -0.06,0.26 -0.07,0.31 -0.02,0.09 -0,0.2 -0,0.22 0,0.01 0.01,0.01 0.01,0 0.01,-0.01 0.08,-0.1 0.1,-0.19 0.01,-0.03 0.04,-0.16 0.04,-0.16 0.02,0.04 0.08,0.07 0.14,0.07 0.18,0 0.31,-0.17 0.31,-0.39 0,-0.17 -0.14,-0.32 -0.36,-0.32 -0.27,0 -0.4,0.19 -0.4,0.35 0,0.1 0.04,0.18 0.12,0.22z"/>
</svg>
