<?xml version="1.0" encoding="UTF-8"?>
<!DOCTYPE svg PUBLIC "-//W3C//DTD SVG 1.1//EN" "http://www.w3.org/Graphics/SVG/1.1/DTD/svg11.dtd">
<!-- Creator: CorelDRAW 2019 (64-Bit) -->
<svg xmlns="http://www.w3.org/2000/svg" xml:space="preserve" width="4.2225mm" height="4.2237mm" version="1.1" style="shape-rendering:geometricPrecision; text-rendering:geometricPrecision; image-rendering:optimizeQuality; fill-rule:evenodd; clip-rule:evenodd"
viewBox="0 0 1.09 1.09"
 xmlns:xlink="http://www.w3.org/1999/xlink">
 <defs>
  <style type="text/css">
   <![CDATA[
    .fil0 {fill:#BE9788;fill-rule:nonzero}
   ]]>
  </style>
 </defs>
 <g id="_2355282925152">
  <path class="fil0" d="M0.56 0.98c-0.09,0 -0.18,-0.03 -0.25,-0.07l-0.17 0.06 0.06 -0.17c-0.05,-0.07 -0.09,-0.16 -0.09,-0.26 0,-0.01 0,-0.03 0,-0.04 0.02,-0.23 0.22,-0.4 0.45,-0.4 0.24,0 0.43,0.18 0.45,0.41 0,0.01 0,0.02 0,0.03 0,0.25 -0.2,0.45 -0.45,0.45zm0.54 -0.46c-0.01,-0.29 -0.24,-0.52 -0.54,-0.52 -0.29,0 -0.52,0.23 -0.54,0.51 -0,0.01 -0,0.02 -0,0.02 0,0.1 0.03,0.19 0.08,0.28l-0.1 0.29 0.3 -0.09c0.08,0.04 0.17,0.07 0.26,0.07 0.3,0 0.54,-0.24 0.54,-0.53 0,-0 0,-0.01 -0,-0.01z"/>
  <path class="fil0" d="M0.8 0.64c-0.01,-0.01 -0.08,-0.04 -0.09,-0.04 -0.01,-0 -0.02,-0.01 -0.03,0.01 -0.01,0.01 -0.03,0.04 -0.04,0.05 -0.01,0.01 -0.02,0.01 -0.03,0 -0.01,-0.01 -0.06,-0.02 -0.11,-0.06 -0.04,-0.03 -0.07,-0.08 -0.07,-0.09 -0.01,-0.01 -0,-0.02 0.01,-0.03 0.01,-0.01 0.01,-0.02 0.02,-0.02 0,-0 0,-0 0,-0.01 0,-0 0.01,-0.01 0.01,-0.02 0,-0.01 0,-0.02 -0,-0.02 -0,-0.01 -0.03,-0.07 -0.04,-0.1 -0.01,-0.03 -0.02,-0.02 -0.03,-0.02 -0.01,0 -0.02,-0 -0.03,-0 -0.01,0 -0.02,0 -0.04,0.02 -0.01,0.01 -0.05,0.04 -0.05,0.11 0,0.02 0,0.03 0.01,0.04 0.01,0.05 0.04,0.08 0.05,0.09 0.01,0.01 0.09,0.14 0.22,0.2 0.13,0.05 0.13,0.03 0.16,0.03 0.02,-0 0.08,-0.03 0.09,-0.06 0.01,-0.03 0.01,-0.06 0.01,-0.06 -0,-0.01 -0.01,-0.01 -0.03,-0.02z"/>
 </g>
</svg>
