<?xml version="1.0" encoding="UTF-8"?>
<!DOCTYPE svg PUBLIC "-//W3C//DTD SVG 1.1//EN" "http://www.w3.org/Graphics/SVG/1.1/DTD/svg11.dtd">
<!-- Creator: CorelDRAW 2019 (64-Bit) -->
<svg xmlns="http://www.w3.org/2000/svg" xml:space="preserve" width="5.9835mm" height="2.8307mm" version="1.1" style="shape-rendering:geometricPrecision; text-rendering:geometricPrecision; image-rendering:optimizeQuality; fill-rule:evenodd; clip-rule:evenodd"
viewBox="0 0 3.81 1.8"
 xmlns:xlink="http://www.w3.org/1999/xlink">
 <defs>
  <style type="text/css">
   <![CDATA[
    .fil0 {fill:#6E444B}
   ]]>
  </style>
 </defs>
 <path class="fil0" d="M0.77 0l-0.66 0 0 0.03c0.07,0.01 0.15,0.01 0.25,0.18l0 0.89c0,0.17 -0.03,0.66 -0.36,0.66l0 0.03 0.78 0 0 -0.03c-0.32,0 -0.31,-0.48 -0.31,-0.64l0 -0.84 0.71 1.52 0.03 0 0.21 -0.54 -0.65 -1.26zm2.37 1.09l0 0.03c0.14,0 0.19,0.02 0.19,0.33 0,0.24 -0.18,0.27 -0.3,0.27 -0.03,0 -0.06,-0 -0.09,-0.01l0 0.08c0.03,0 0.06,0 0.09,0 0.27,0 0.47,-0.05 0.61,-0.12 0,-0.52 0.01,-0.55 0.17,-0.55l0 -0.03 -0.67 0zm-0.45 0.35c-0.03,-0.13 -0.1,-0.28 -0.1,-0.53 0,-0.26 0.05,-0.52 0.2,-0.68 0.14,-0.14 0.33,-0.18 0.51,-0.13 0.21,0.06 0.27,0.23 0.28,0.5l0.05 0 -0 -0.46c-0.27,-0.18 -0.75,-0.18 -1.05,-0.04 -0.3,0.15 -0.47,0.45 -0.47,0.81 0,0.29 0.1,0.52 0.3,0.68 0.1,-0.03 0.2,-0.08 0.27,-0.15zm0.15 -0.19c-0.04,0.49 -0.72,0.47 -0.83,0.47l-0.05 0 0 -1.48c0,-0.18 0.07,-0.2 0.18,-0.2l0 -0.03 -0.75 0 0 0.03c0.11,0 0.16,0.03 0.16,0.18l0 1.3c0,0.17 -0.03,0.25 -0.14,0.25l0 0.03 1.45 0 0 -0.55 -0.03 0z"/>
</svg>
