<?xml version="1.0" encoding="UTF-8"?>
<!DOCTYPE svg PUBLIC "-//W3C//DTD SVG 1.1//EN" "http://www.w3.org/Graphics/SVG/1.1/DTD/svg11.dtd">
<!-- Creator: CorelDRAW 2019 (64-Bit) -->
<svg xmlns="http://www.w3.org/2000/svg" xml:space="preserve" width="22.0858mm" height="10.4482mm" version="1.1" style="shape-rendering:geometricPrecision; text-rendering:geometricPrecision; image-rendering:optimizeQuality; fill-rule:evenodd; clip-rule:evenodd"
viewBox="0 0 260.21 123.1"
 xmlns:xlink="http://www.w3.org/1999/xlink">
 <defs>
  <style type="text/css">
   <![CDATA[
    .fil2 {fill:url(#id0);fill-rule:nonzero}
    .fil1 {fill:url(#id1);fill-rule:nonzero}
    .fil0 {fill:url(#id2);fill-rule:nonzero}
   ]]>
  </style>
  <linearGradient id="id0" gradientUnits="userSpaceOnUse" x1="145.72" y1="123.06" x2="145.72" y2="0.11">
   <stop offset="0" style="stop-opacity:1; stop-color:#77356C"/>
   <stop offset="0.509804" style="stop-opacity:1; stop-color:#9D538C"/>
   <stop offset="1" style="stop-opacity:1; stop-color:#C371AD"/>
  </linearGradient>
  <linearGradient id="id1" gradientUnits="userSpaceOnUse" xlink:href="#id0" x1="202.52" y1="123.06" x2="202.52" y2="0">
  </linearGradient>
  <linearGradient id="id2" gradientUnits="userSpaceOnUse" xlink:href="#id0" x1="48.36" y1="123.1" x2="48.36" y2="0.15">
  </linearGradient>
 </defs>
 <g id="_1830549358704">
  <path class="fil0" d="M52.61 0.15l-45.03 0 0 2.24c4.65,0.34 10.36,0.36 16.91,12.08l0 61.03c0,11.37 -2.26,45.36 -24.5,45.36l0 2.24 53.1 0 0 -2.24c-21.89,0 -21.14,-32.79 -21.14,-44l0 -57.41 48.2 103.6 2.24 0 14.32 -36.82 -44.11 -86.09z"/>
  <path class="fil1" d="M214.32 74.79l0 2.24c9.65,0 13.27,1.21 13.27,22.41 0,16.72 -12.36,18.65 -20.69,18.65 -2.29,0 -4.41,-0.14 -6.37,-0.47l0 5.16c2.08,0.18 4.21,0.27 6.37,0.27 18.45,0 32.1,-3.45 41.75,-8.45 0,-35.51 0.69,-37.58 11.55,-37.58l0 -2.24 -45.89 0zm-30.82 23.85c-2.06,-8.62 -6.6,-19.21 -6.6,-36.23 0,-17.74 3.08,-35.42 13.8,-46.32 9.22,-9.37 22.25,-12.05 34.69,-8.7 14.41,3.88 18.12,15.38 19,33.99l3.62 0 -0.04 -31.72c-18.48,-12.22 -51.44,-12.57 -71.38,-2.65 -20.36,10.13 -31.76,30.63 -31.76,55.4 0,19.86 6.83,35.38 20.57,46.6 6.86,-2.12 13.46,-5.38 18.1,-10.37z"/>
  <path class="fil2" d="M193.76 85.65c-2.93,33.27 -49.16,31.76 -56.58,31.76l-3.1 0 0 -101.27c0,-12.41 5,-13.79 12.41,-13.79l0 -2.24 -51.05 0 0 2.24c7.41,0 11.03,2.08 11.03,12.58l0 88.99c0,11.72 -2.24,16.89 -9.65,16.89l0 2.24 99.18 0 0 -37.41 -2.24 0z"/>
 </g>
</svg>
