<?xml version="1.0" encoding="UTF-8"?>
<!DOCTYPE svg PUBLIC "-//W3C//DTD SVG 1.1//EN" "http://www.w3.org/Graphics/SVG/1.1/DTD/svg11.dtd">
<!-- Creator: CorelDRAW 2019 (64-Bit) -->
<svg xmlns="http://www.w3.org/2000/svg" xml:space="preserve" width="6.6358mm" height="3.1393mm" version="1.1" style="shape-rendering:geometricPrecision; text-rendering:geometricPrecision; image-rendering:optimizeQuality; fill-rule:evenodd; clip-rule:evenodd"
viewBox="0 0 51.75 24.48"
 xmlns:xlink="http://www.w3.org/1999/xlink">
 <defs>
  <style type="text/css">
   <![CDATA[
    .fil0 {fill:#FEFEFE}
   ]]>
  </style>
 </defs>
 <g id="Layer_x0020_1">
  <metadata id="CorelCorpID_0Corel-Layer"/>
  <g id="_1879049353568">
   <path class="fil0" d="M10.46 0.03l-8.95 0 0 0.45c0.93,0.07 2.06,0.07 3.36,2.4l0 12.14c0,2.26 -0.45,9.02 -4.87,9.02l0 0.45 10.56 0 0 -0.45c-4.35,0 -4.2,-6.52 -4.2,-8.75l0 -11.42 9.59 20.6 0.45 0 2.85 -7.32 -8.77 -17.12z"/>
   <path class="fil0" d="M42.62 14.87l0 0.45c1.92,0 2.64,0.24 2.64,4.46 0,3.33 -2.46,3.71 -4.11,3.71 -0.46,0 -0.88,-0.03 -1.27,-0.09l0 1.03c0.41,0.04 0.84,0.05 1.27,0.05 3.67,0 6.38,-0.69 8.3,-1.68 0,-7.06 0.14,-7.47 2.3,-7.47l0 -0.45 -9.13 0zm-6.13 4.74c-0.41,-1.71 -1.31,-3.82 -1.31,-7.21 0,-3.53 0.61,-7.04 2.75,-9.21 1.83,-1.86 4.42,-2.4 6.9,-1.73 2.87,0.77 3.6,3.06 3.78,6.76l0.72 0 -0.01 -6.31c-3.68,-2.43 -10.23,-2.5 -14.2,-0.53 -4.05,2.01 -6.32,6.09 -6.32,11.02 0,3.95 1.36,7.04 4.09,9.27 1.36,-0.42 2.68,-1.07 3.6,-2.06z"/>
   <path class="fil0" d="M38.53 17.03c-0.58,6.62 -9.78,6.32 -11.25,6.32l-0.62 0 0 -20.14c0,-2.47 0.99,-2.74 2.47,-2.74l0 -0.45 -10.15 0 0 0.45c1.47,0 2.19,0.41 2.19,2.5l0 17.7c0,2.33 -0.45,3.36 -1.92,3.36l0 0.45 19.72 0 0 -7.44 -0.45 0z"/>
  </g>
 </g>
</svg>
