<?xml version="1.0" encoding="UTF-8"?>
<!DOCTYPE svg PUBLIC "-//W3C//DTD SVG 1.1//EN" "http://www.w3.org/Graphics/SVG/1.1/DTD/svg11.dtd">
<!-- Creator: CorelDRAW 2019 (64-Bit) -->
<svg xmlns="http://www.w3.org/2000/svg" xml:space="preserve" width="14.7392mm" height="14.7392mm" version="1.1" style="shape-rendering:geometricPrecision; text-rendering:geometricPrecision; image-rendering:optimizeQuality; fill-rule:evenodd; clip-rule:evenodd"
viewBox="0 0 21.15 21.15"
 xmlns:xlink="http://www.w3.org/1999/xlink">
 <defs>
  <style type="text/css">
   <![CDATA[
    .str0 {stroke:#8C5D65;stroke-width:0.61;stroke-miterlimit:22.9256}
    .fil0 {fill:none}
    .fil1 {fill:#8C5D65}
   ]]>
  </style>
 </defs>
 <g id="Layer_x0020_1">
  <metadata id="CorelCorpID_0Corel-Layer"/>
  <g id="_1849094780880">
   <circle class="fil0 str0" cx="10.57" cy="10.57" r="10.27"/>
   <path class="fil1" d="M11.38 12.39l0.41 0 0 -0.4 -0.41 0 0 0.4zm4.25 -6.48l-1.82 0 0 -0.24c0.23,-0.08 0.4,-0.31 0.4,-0.57 0,-0.33 -0.27,-0.61 -0.61,-0.61 -0.33,0 -0.61,0.27 -0.61,0.61 0,0.26 0.17,0.49 0.41,0.57l0 0.24 -5.67 0 0 -0.24c0.24,-0.08 0.41,-0.31 0.41,-0.57 0,-0.33 -0.27,-0.61 -0.61,-0.61 -0.33,0 -0.61,0.27 -0.61,0.61 0,0.26 0.17,0.49 0.4,0.57l0 0.24 -1.82 0c-0.56,0 -1.01,0.45 -1.01,1.01l0 6.68c0,0.56 0.45,1.01 1.01,1.01l3.52 0 -0.4 0.81 -1.29 0c-0.11,0 -0.2,0.09 -0.2,0.2 0,0.56 0.45,1.01 1.01,1.01l4.86 0c0.56,0 1.01,-0.45 1.01,-1.01 0,-0.11 -0.09,-0.2 -0.2,-0.2l-1.29 0 -0.4 -0.81 3.52 0c0.56,0 1.01,-0.45 1.01,-1.01l0 -6.68c0,-0.56 -0.45,-1.01 -1.01,-1.01zm-2.02 -1.01c0.11,0 0.2,0.09 0.2,0.2 0,0.11 -0.09,0.2 -0.2,0.2 -0.11,0 -0.2,-0.09 -0.2,-0.2 0,-0.11 0.09,-0.2 0.2,-0.2zm-6.07 0c0.11,0 0.2,0.09 0.2,0.2 0,0.11 -0.09,0.2 -0.2,0.2 -0.11,0 -0.2,-0.09 -0.2,-0.2 0,-0.11 0.09,-0.2 0.2,-0.2zm4.86 10.93l1.18 0c-0.08,0.24 -0.31,0.4 -0.57,0.4l-4.86 0c-0.26,0 -0.49,-0.17 -0.57,-0.4l1.18 0 3.64 0zm-3.32 -0.4l0.4 -0.81 2.18 0 0.4 0.81 -2.99 0zm7.16 -1.82c0,0.33 -0.27,0.61 -0.61,0.61l-3.85 0 -2.43 0 -3.85 0c-0.33,0 -0.61,-0.27 -0.61,-0.61l0 -0.61 11.34 0 0 0.61zm0 -1.01l-11.34 0 0 -5.67c0,-0.33 0.27,-0.61 0.61,-0.61l10.12 0c0.33,0 0.61,0.27 0.61,0.61l0 5.67zm-5.87 1.21l0.4 0 0 -0.4 -0.4 0 0 0.4zm-0.81 0l0.41 0 0 -0.4 -0.41 0 0 0.4zm1.62 0l0.41 0 0 -0.4 -0.41 0 0 0.4zm-4.92 -6.74l-0.29 -0.29 -0.61 0.61c-0.08,0.08 -0.08,0.21 0,0.29l0.61 0.61 0.29 -0.29 -0.46 -0.46 0.46 -0.46zm3.85 0.32l-0.61 -0.61 -0.29 0.29 0.46 0.46 -0.46 0.46 0.29 0.29 0.61 -0.61c0.08,-0.08 0.08,-0.21 0,-0.29zm-2.43 1.91l-0.29 -0.29 -0.61 0.61c-0.08,0.08 -0.08,0.21 0,0.29l0.61 0.61 0.29 -0.29 -0.46 -0.46 0.46 -0.46zm6.28 0.32l-0.61 -0.61 -0.29 0.29 0.46 0.46 -0.46 0.46 0.29 0.29 0.61 -0.61c0.08,-0.08 0.08,-0.21 0,-0.29zm-6.28 1.5l-0.29 -0.29 -0.61 0.61c-0.08,0.08 -0.08,0.21 0,0.29l0.61 0.61 0.29 -0.29 -0.46 -0.46 0.46 -0.46zm2.63 0.32l-0.61 -0.61 -0.29 0.29 0.46 0.46 -0.46 0.46 0.29 0.29 0.61 -0.61c0.08,-0.08 0.08,-0.21 0,-0.29zm2.63 -0.32l-0.29 -0.29 -0.61 0.61c-0.08,0.08 -0.08,0.21 0,0.29l0.61 0.61 0.29 -0.29 -0.46 -0.46 0.46 -0.46zm2.63 0.32l-0.61 -0.61 -0.29 0.29 0.46 0.46 -0.46 0.46 0.29 0.29 0.61 -0.61c0.08,-0.08 0.08,-0.21 0,-0.29zm-8.85 -3.3l0.4 0 0 -0.41 -0.4 0 0 0.41zm0.81 0l0.4 0 0 -0.41 -0.4 0 0 0.41zm0.81 0l0.4 0 0 -0.41 -0.4 0 0 0.41zm2.23 0l0.4 0 0 -0.41 -0.4 0 0 0.41zm0.81 0l0.41 0 0 -0.41 -0.41 0 0 0.41zm0.81 0l0.4 0 0 -0.41 -0.4 0 0 0.41zm1.42 -0.61l-0.41 0 0 0.4 0.2 0 0 0.17 -0.19 0.58 0.38 0.13 0.2 -0.61c0.01,-0.02 0.01,-0.04 0.01,-0.06l0 -0.41c0,-0.11 -0.09,-0.2 -0.2,-0.2zm-0.41 -0.4l0.41 0 0 -0.4 -0.41 0 0 0.4zm-4.05 1.62l-0.81 0c-0.11,0 -0.2,0.09 -0.2,0.2l0 1.42c0,0.11 0.09,0.2 0.2,0.2l0.81 0c0.11,0 0.2,-0.09 0.2,-0.2l0 -1.42c0,-0.11 -0.09,-0.2 -0.2,-0.2zm-0.2 1.42l-0.4 0 0 -1.01 0.4 0 0 1.01zm1.82 -1.42l-0.81 0c-0.11,0 -0.2,0.09 -0.2,0.2l0 1.42c0,0.11 0.09,0.2 0.2,0.2l0.81 0c0.11,0 0.2,-0.09 0.2,-0.2l0 -1.42c0,-0.11 -0.09,-0.2 -0.2,-0.2zm-0.2 1.42l-0.4 0 0 -1.01 0.4 0 0 1.01zm1.82 -1.42l-0.81 0c-0.11,0 -0.2,0.09 -0.2,0.2l0 1.42c0,0.11 0.09,0.2 0.2,0.2l0.81 0c0.11,0 0.2,-0.09 0.2,-0.2l0 -1.42c0,-0.11 -0.09,-0.2 -0.2,-0.2zm-0.2 1.42l-0.4 0 0 -1.01 0.4 0 0 1.01zm1.4 2.11l0.81 -1.82 -0.37 -0.16 -0.81 1.82 0.37 0.16zm-3.02 0.12l0.4 0 0 -0.4 -0.4 0 0 0.4z"/>
  </g>
 </g>
</svg>
