<?xml version="1.0" encoding="UTF-8"?>
<!DOCTYPE svg PUBLIC "-//W3C//DTD SVG 1.1//EN" "http://www.w3.org/Graphics/SVG/1.1/DTD/svg11.dtd">
<!-- Creator: CorelDRAW 2019 (64-Bit) -->
<svg xmlns="http://www.w3.org/2000/svg" xml:space="preserve" width="14.7392mm" height="14.7392mm" version="1.1" style="shape-rendering:geometricPrecision; text-rendering:geometricPrecision; image-rendering:optimizeQuality; fill-rule:evenodd; clip-rule:evenodd"
viewBox="0 0 23.39 23.39"
 xmlns:xlink="http://www.w3.org/1999/xlink">
 <defs>
  <style type="text/css">
   <![CDATA[
    .str0 {stroke:#8C5D65;stroke-width:0.67;stroke-miterlimit:22.9256}
    .fil1 {fill:none}
    .fil0 {fill:#8C5D65}
   ]]>
  </style>
 </defs>
 <g id="Layer_x0020_1">
  <metadata id="CorelCorpID_0Corel-Layer"/>
  <g id="_1849189541872">
   <g>
    <polygon class="fil0" points="6.77,16.17 6.77,15.72 6.32,15.72 6.32,16.17 5.87,16.17 5.87,16.62 6.32,16.62 6.32,17.07 6.77,17.07 6.77,16.62 7.22,16.62 7.22,16.17 "/>
    <path class="fil0" d="M9.46 15.72c-0.37,0 -0.67,0.3 -0.67,0.67 0,0.37 0.3,0.67 0.67,0.67 0.37,0 0.67,-0.3 0.67,-0.67 0,-0.37 -0.3,-0.67 -0.67,-0.67zm0 0.9c-0.12,0 -0.22,-0.1 -0.22,-0.22 0,-0.12 0.1,-0.22 0.22,-0.22 0.12,0 0.22,0.1 0.22,0.22 0,0.12 -0.1,0.22 -0.22,0.22z"/>
    <polygon class="fil0" points="13.93,16.17 13.93,15.72 13.49,15.72 13.49,16.17 13.04,16.17 13.04,16.62 13.49,16.62 13.49,17.07 13.93,17.07 13.93,16.62 14.38,16.62 14.38,16.17 "/>
    <path class="fil0" d="M16.62 15.72c-0.37,0 -0.67,0.3 -0.67,0.67 0,0.37 0.3,0.67 0.67,0.67 0.37,0 0.67,-0.3 0.67,-0.67 0,-0.37 -0.3,-0.67 -0.67,-0.67zm0 0.9c-0.12,0 -0.22,-0.1 -0.22,-0.22 0,-0.12 0.1,-0.22 0.22,-0.22 0.12,0 0.22,0.1 0.22,0.22 0,0.12 -0.1,0.22 -0.22,0.22z"/>
    <path class="fil0" d="M16.62 14.83l-0.67 0 0 -0.45c0,-0.25 -0.2,-0.45 -0.45,-0.45l0 -0.45 2.24 0c0.12,0 0.22,-0.1 0.22,-0.22l0 -4.7c0,-0.12 -0.1,-0.22 -0.22,-0.22l-2.46 0 0 -3.13c0,-0.12 -0.1,-0.22 -0.22,-0.22l-6.72 0c-0.12,0 -0.22,0.1 -0.22,0.22l0 3.13 -2.46 0c-0.12,0 -0.22,0.1 -0.22,0.22l0 4.7c0,0.12 0.1,0.22 0.22,0.22l2.24 0 0 0.45c-0.25,0 -0.45,0.2 -0.45,0.45l0 0.45 -0.67 0c-0.99,0 -1.79,0.8 -1.79,1.79 0,0.99 0.8,1.79 1.79,1.79 0.06,0 0.12,-0.02 0.16,-0.07l0.38 -0.38 1.61 0 0.38 0.38c0.04,0.04 0.1,0.07 0.16,0.07 0.99,0 1.79,-0.8 1.79,-1.79 0,-0.99 -0.8,-1.79 -1.79,-1.79l-0.67 0 0 -0.45c0,-0.25 -0.2,-0.45 -0.45,-0.45l0 -0.67c0,-0.12 -0.1,-0.22 -0.22,-0.22l-2.24 0 0 -4.25 2.24 0 0 0.9c0,0.12 0.1,0.22 0.22,0.22l1.57 0 0 0.45 -2.91 0c-0.12,0 -0.22,0.1 -0.22,0.22l0 1.79c0,0.12 0.1,0.22 0.22,0.22l9.4 0c0.12,0 0.22,-0.1 0.22,-0.22l0 -1.79c0,-0.12 -0.1,-0.22 -0.22,-0.22l-2.91 0 0 -0.45 1.57 0c0.12,0 0.22,-0.1 0.22,-0.22l0 -0.9 2.24 0 0 4.25 -2.24 0c-0.12,0 -0.22,0.1 -0.22,0.22l0 0.67c-0.25,0 -0.45,0.2 -0.45,0.45l0 0.45 -0.67 0c-0.99,0 -1.79,0.8 -1.79,1.79 0,0.99 0.8,1.79 1.79,1.79 0.06,0 0.12,-0.02 0.16,-0.07l0.38 -0.38 1.61 0 0.38 0.38c0.04,0.04 0.1,0.07 0.16,0.07 0.99,0 1.79,-0.8 1.79,-1.79 0,-0.99 -0.8,-1.79 -1.79,-1.79zm-8.06 0.45l0.9 0c0.74,0 1.34,0.6 1.34,1.34 0,0.71 -0.55,1.29 -1.25,1.34l-0.38 -0.38c-0.04,-0.04 -0.1,-0.07 -0.16,-0.07l-1.79 0c-0.06,0 -0.12,0.02 -0.16,0.07l-0.38 0.38c-0.7,-0.05 -1.25,-0.63 -1.25,-1.34 0,-0.74 0.6,-1.34 1.34,-1.34l0.9 0 0.9 0zm-0.22 -0.9l0 0.45 -0.45 0 0 -0.45 0.45 0zm7.84 -3.58l0 1.34 -8.96 0 0 -1.34 2.91 0 3.13 0 2.91 0zm-5.82 -0.45l0 -0.45 2.69 0 0 0.45 -2.69 0zm4.48 -0.9l-1.57 0 -3.13 0 -1.57 0 0 -4.03 6.27 0 0 4.03zm0.22 4.93l0.45 0 0 0.45 -0.45 0 0 -0.45zm1.66 3.58l-0.38 -0.38c-0.04,-0.04 -0.1,-0.07 -0.16,-0.07l-1.79 0c-0.06,0 -0.12,0.02 -0.16,0.07l-0.38 0.38c-0.7,-0.05 -1.25,-0.63 -1.25,-1.34 0,-0.74 0.6,-1.34 1.34,-1.34l0.9 0 0.9 0 0.9 0c0.74,0 1.34,0.6 1.34,1.34 0,0.71 -0.55,1.29 -1.25,1.34z"/>
    <path class="fil0" d="M11.56 7.87c-0.02,-0.06 -0.06,-0.1 -0.11,-0.13l-0.6 -0.3 0.6 -0.3c0.05,-0.03 0.09,-0.07 0.11,-0.13 0.02,-0.06 0.01,-0.12 -0.01,-0.17 -0.23,-0.46 -0.69,-0.74 -1.2,-0.74 -0.74,0 -1.34,0.6 -1.34,1.34 0,0.74 0.6,1.34 1.34,1.34 0.51,0 0.97,-0.29 1.2,-0.74 0.03,-0.05 0.03,-0.11 0.01,-0.17zm-1.21 0.47c-0.49,0 -0.9,-0.4 -0.9,-0.9 0,-0.49 0.4,-0.9 0.9,-0.9 0.26,0 0.5,0.11 0.67,0.31l-0.77 0.39c-0.08,0.04 -0.12,0.12 -0.12,0.2 0,0.08 0.05,0.16 0.12,0.2l0.77 0.39c-0.17,0.19 -0.41,0.31 -0.67,0.31z"/>
    <rect class="fil0" x="12.14" y="7.22" width="0.45" height="0.45"/>
    <rect class="fil0" x="13.04" y="7.22" width="0.45" height="0.45"/>
    <rect class="fil0" x="13.93" y="7.22" width="0.45" height="0.45"/>
   </g>
   <circle class="fil1 str0" cx="11.69" cy="11.69" r="11.36"/>
  </g>
 </g>
</svg>
