<?xml version="1.0" encoding="UTF-8"?>
<!DOCTYPE svg PUBLIC "-//W3C//DTD SVG 1.1//EN" "http://www.w3.org/Graphics/SVG/1.1/DTD/svg11.dtd">
<!-- Creator: CorelDRAW 2019 (64-Bit) -->
<svg xmlns="http://www.w3.org/2000/svg" xml:space="preserve" width="14.7392mm" height="14.7392mm" version="1.1" style="shape-rendering:geometricPrecision; text-rendering:geometricPrecision; image-rendering:optimizeQuality; fill-rule:evenodd; clip-rule:evenodd"
viewBox="0 0 21.85 21.85"
 xmlns:xlink="http://www.w3.org/1999/xlink">
 <defs>
  <style type="text/css">
   <![CDATA[
    .str0 {stroke:#8C5D65;stroke-width:0.63;stroke-miterlimit:22.9256}
    .fil1 {fill:none}
    .fil0 {fill:#8C5D65}
   ]]>
  </style>
 </defs>
 <g id="Layer_x0020_1">
  <metadata id="CorelCorpID_0Corel-Layer"/>
  <g id="_1849084465712">
   <path class="fil0" d="M15.94 8.55c0.69,0 1.25,-0.56 1.25,-1.25 0,-0.38 -0.17,-0.72 -0.43,-0.95l0.44 -1.02 -0.38 -0.17 -0.42 0.96c-0.14,-0.06 -0.3,-0.09 -0.46,-0.09l-1.88 0 0 0.42 1.88 0c0.1,0 0.2,0.02 0.29,0.06l-0.71 1.62 -2.76 0 -1.23 -3.02 -0.39 0.16 1.17 2.87c-0.66,0.04 -1.19,0.58 -1.19,1.25 0,0.69 0.56,1.25 1.25,1.25l0.95 0 0.52 1.28 -0.17 0.39 -1.31 0c-0.69,0 -1.25,0.56 -1.25,1.25 0,0.69 0.56,1.25 1.25,1.25l0.21 0 -0.39 0.89c-0.25,-0.03 -0.51,0.1 -0.63,0.34l-0.22 0.44 -2.94 0c-0.46,0 -0.84,-0.37 -0.84,-0.84l0 -0.84 0.12 0 0.09 0c1.27,0 2.3,-1.03 2.3,-2.3l0 -1.25 0 -2.51 0 -1.04 0 -0.21c0,-0.06 -0,-0.12 -0.01,-0.18 -0,-0.01 -0,-0.02 -0,-0.02 -0,-0.01 -0,-0.01 -0,-0.02 -0,-0.02 -0,-0.03 -0.01,-0.05 -0,-0.03 -0.01,-0.06 -0.01,-0.08 -0,-0.02 -0.01,-0.03 -0.01,-0.05 -0,-0.01 -0,-0.02 -0.01,-0.03 -0,-0.01 -0.01,-0.03 -0.01,-0.04 -0,-0.02 -0.01,-0.03 -0.01,-0.05 -0.01,-0.03 -0.02,-0.06 -0.02,-0.09 -0,-0.01 -0,-0.01 -0.01,-0.02 -0,-0.02 -0.01,-0.03 -0.01,-0.05 -0,-0 -0,-0 -0,-0 -0,-0 -0,-0 -0,-0 -0.15,-0.49 -0.47,-0.92 -0.9,-1.21 -0.01,-0 -0.01,-0.01 -0.02,-0.01 -0.05,-0.03 -0.1,-0.07 -0.16,-0.1 -0.01,-0.01 -0.02,-0.01 -0.04,-0.02 -0.05,-0.03 -0.1,-0.05 -0.15,-0.07 -0.01,-0.01 -0.03,-0.01 -0.04,-0.02 -0.06,-0.02 -0.12,-0.05 -0.18,-0.07 -0,-0 -0,0 -0,-0 -0.22,-0.07 -0.46,-0.11 -0.7,-0.11l-0.75 0 -0.09 0c-1.27,0 -2.3,1.03 -2.3,2.3l0 1.25 0 2.51 0 1.05 0 0.21c0,0.06 0,0.12 0.01,0.18 0,0.01 0,0.02 0,0.02 0,0.01 0,0.01 0,0.02 0,0.02 0,0.03 0.01,0.05 0,0.03 0.01,0.06 0.01,0.08 0,0.02 0.01,0.03 0.01,0.05 0,0.01 0,0.02 0.01,0.03 0,0.01 0.01,0.03 0.01,0.04 0,0.02 0.01,0.03 0.01,0.05 0.01,0.03 0.02,0.06 0.02,0.09 0,0.01 0,0.01 0.01,0.02 0,0.02 0.01,0.03 0.01,0.05 0,0 0,0 0,0 0,0 0,0 0,0 0.15,0.49 0.47,0.92 0.9,1.21 0.01,0 0.01,0.01 0.02,0.01 0.05,0.03 0.1,0.07 0.16,0.1 0.01,0.01 0.02,0.01 0.04,0.02 0.05,0.03 0.1,0.05 0.15,0.07 0.01,0.01 0.03,0.01 0.04,0.02 0.06,0.02 0.12,0.05 0.18,0.07 0,0 0,0 0,0 0.22,0.07 0.46,0.11 0.7,0.11l0.21 0 0 0.84c0,0.69 0.56,1.25 1.25,1.25l2.74 0c-0.04,0.12 -0.03,0.25 0.01,0.37 0.05,0.16 0.16,0.29 0.31,0.36 0.09,0.04 0.19,0.07 0.28,0.07 0.23,0 0.45,-0.13 0.56,-0.35l0.23 -0.45 0.47 0c0.69,0 1.25,-0.56 1.25,-1.25 0,-0.62 -0.45,-1.13 -1.04,-1.24l0.74 -1.69 0.23 0 1.31 3.21c-0.07,0.07 -0.12,0.15 -0.16,0.24 -0.06,0.16 -0.05,0.33 0.02,0.48l0.35 0.76c0.07,0.15 0.2,0.27 0.35,0.32 0.07,0.03 0.14,0.04 0.21,0.04 0.09,0 0.18,-0.02 0.27,-0.06 0.15,-0.07 0.27,-0.2 0.32,-0.35 0.06,-0.16 0.05,-0.33 -0.02,-0.48l-0.35 -0.76c-0.07,-0.15 -0.2,-0.27 -0.35,-0.32 -0.09,-0.03 -0.18,-0.04 -0.26,-0.03l-1.24 -3.04 1.3 0c0.69,0 1.25,-0.56 1.25,-1.25 0,-0.69 -0.56,-1.25 -1.25,-1.25l-0.88 0 0.73 -1.67 0.14 0zm0.64 -1.79c0.12,0.15 0.2,0.33 0.2,0.53 0,0.45 -0.35,0.81 -0.79,0.83l0.6 -1.36zm-6.91 5.76c0,0.87 -0.59,1.6 -1.39,1.81 0.71,-0.79 1.12,-1.79 1.17,-2.86l0.21 0 0 1.05zm0 -3.97l-0.6 0c0.08,-0.29 0.31,-0.52 0.6,-0.6l0 0.6zm-0.03 -1.37c0,0.02 0.01,0.04 0.01,0.06 0,0 0,0 0,0.01 0.01,0.08 0.02,0.17 0.02,0.26l0 0.02c-0.52,0.09 -0.94,0.5 -1.03,1.03l-0.42 0c0.09,-0.74 0.67,-1.33 1.4,-1.44 0,0.02 0.01,0.04 0.02,0.07zm-0.39 -0.85c0.01,0.01 0.02,0.02 0.03,0.03 0.03,0.04 0.07,0.09 0.1,0.14 0.03,0.04 0.05,0.08 0.07,0.12 0.02,0.03 0.03,0.06 0.04,0.08 0,0 0,0 0,0.01 -0.91,0.17 -1.6,0.92 -1.69,1.84l-0.42 0c0.09,-1.06 0.84,-1.96 1.87,-2.22zm-0.79 -0.58c0.08,0.03 0.16,0.07 0.23,0.11 0.02,0.01 0.03,0.02 0.05,0.03 0.06,0.03 0.11,0.07 0.16,0.11 0,0 0.01,0.01 0.01,0.01 -1.09,0.38 -1.87,1.39 -1.95,2.55l-0.42 0c0.08,-1.2 0.8,-2.28 1.9,-2.81 0.01,0 0.02,0.01 0.02,0.01zm-1.35 -0.13l0.67 0c0.01,0 0.01,0 0.02,0 -0.98,0.65 -1.61,1.73 -1.68,2.93l-0.42 0c0.06,-1.12 0.56,-2.18 1.41,-2.93zm-2.05 1.88c0,-0.87 0.59,-1.6 1.39,-1.81 -0.71,0.79 -1.12,1.79 -1.17,2.86l-0.21 0 0 -1.05zm0 1.46l0.42 0 0.84 0 0.84 0 0.84 0 0.84 0 0.84 0 0 2.09 -0.42 0 -0.84 0 -0.84 0 -0.84 0 -0.84 0 -0.84 0 0 -2.09zm0 2.51l0.6 0c-0.08,0.29 -0.31,0.52 -0.6,0.6l0 -0.6zm0.03 1.37c-0,-0.02 -0.01,-0.04 -0.01,-0.06 -0,-0 -0,-0 -0,-0.01 -0.01,-0.08 -0.02,-0.17 -0.02,-0.26l0 -0.02c0.52,-0.09 0.94,-0.5 1.03,-1.03l0.42 0c-0.09,0.74 -0.67,1.33 -1.4,1.44 -0,-0.02 -0.01,-0.04 -0.02,-0.07zm0.39 0.85c-0.01,-0.01 -0.02,-0.02 -0.03,-0.03 -0.03,-0.04 -0.07,-0.09 -0.1,-0.14 -0.03,-0.04 -0.05,-0.08 -0.07,-0.12 -0.01,-0.03 -0.03,-0.06 -0.04,-0.08 -0,-0 -0,-0 -0,-0.01 0.91,-0.17 1.6,-0.92 1.69,-1.84l0.42 0c-0.09,1.06 -0.84,1.96 -1.87,2.22zm0.79 0.58c-0.08,-0.03 -0.16,-0.07 -0.23,-0.11 -0.02,-0.01 -0.03,-0.02 -0.05,-0.03 -0.06,-0.03 -0.11,-0.07 -0.16,-0.11 -0,-0 -0.01,-0.01 -0.01,-0.01 1.09,-0.38 1.87,-1.39 1.95,-2.55l0.42 0c-0.08,1.2 -0.8,2.28 -1.9,2.81 -0.01,-0 -0.02,-0.01 -0.02,-0.01zm0.67 0.13c-0.01,0 -0.01,-0 -0.02,-0 0.98,-0.65 1.61,-1.73 1.68,-2.93l0.42 0c-0.06,1.12 -0.56,2.18 -1.41,2.93l-0.67 0zm4.99 2.78c-0.05,0.1 -0.18,0.14 -0.28,0.09 -0.05,-0.02 -0.09,-0.07 -0.1,-0.12 -0.02,-0.05 -0.01,-0.11 0.01,-0.16l0.04 -0.08 0.47 0 -0.13 0.27zm0.37 -0.75l-0.03 0.06 -0.47 0 0.12 -0.25c0.04,-0.07 0.11,-0.12 0.19,-0.12 0.03,0 0.06,0.01 0.09,0.02 0.1,0.05 0.15,0.18 0.09,0.28zm1.53 -0.77c0,0.46 -0.37,0.84 -0.84,0.84l-0.27 0c0.06,-0.21 -0.01,-0.44 -0.16,-0.59l0.47 -1.07c0.45,0.02 0.8,0.38 0.8,0.83zm-1.07 -1.25l-0.39 0c-0.46,0 -0.84,-0.37 -0.84,-0.84 0,-0.46 0.37,-0.84 0.84,-0.84l1.12 0 -0.73 1.67zm2.96 1.92c0.02,-0.05 0.06,-0.09 0.11,-0.12 0.03,-0.01 0.06,-0.02 0.09,-0.02 0.02,0 0.05,0 0.07,0.01 0.05,0.02 0.09,0.06 0.12,0.11l0.35 0.76c0.02,0.05 0.03,0.11 0.01,0.16 -0.02,0.05 -0.06,0.09 -0.11,0.12 -0.1,0.05 -0.23,0 -0.28,-0.1l-0.35 -0.76c-0.02,-0.05 -0.03,-0.11 -0.01,-0.16zm-3.35 -6.1c-0.46,0 -0.84,-0.37 -0.84,-0.84 0,-0.46 0.37,-0.84 0.84,-0.84l0.1 0 0.68 1.67 -0.78 0zm1.71 1.17l-0.31 -0.75 0.63 0 -0.33 0.75zm1.84 -0.75c0.46,0 0.84,0.37 0.84,0.84 0,0.46 -0.37,0.84 -0.84,0.84l-1.47 0 -0.16 -0.38 0.56 -1.29 1.06 0zm-1.33 -0.42l-0.99 0 -0.68 -1.67 2.4 0 -0.73 1.67z"/>
   <circle class="fil1 str0" cx="10.93" cy="10.93" r="10.61"/>
  </g>
 </g>
</svg>
