<?xml version="1.0" encoding="UTF-8"?>
<!DOCTYPE svg PUBLIC "-//W3C//DTD SVG 1.1//EN" "http://www.w3.org/Graphics/SVG/1.1/DTD/svg11.dtd">
<!-- Creator: CorelDRAW 2019 (64-Bit) -->
<svg xmlns="http://www.w3.org/2000/svg" xml:space="preserve" width="14.7392mm" height="14.7392mm" version="1.1" style="shape-rendering:geometricPrecision; text-rendering:geometricPrecision; image-rendering:optimizeQuality; fill-rule:evenodd; clip-rule:evenodd"
viewBox="0 0 22.59 22.59"
 xmlns:xlink="http://www.w3.org/1999/xlink">
 <defs>
  <style type="text/css">
   <![CDATA[
    .str0 {stroke:#8C5D65;stroke-width:0.65;stroke-miterlimit:22.9256}
    .fil1 {fill:none}
    .fil0 {fill:#8C5D65}
   ]]>
  </style>
 </defs>
 <g id="Layer_x0020_1">
  <metadata id="CorelCorpID_0Corel-Layer"/>
  <g id="_1849189503120">
   <g>
    <path class="fil0" d="M13.83 7.75l0 2.86c0,0.94 -0.54,1.75 -1.32,2.15l0 -6.33c0,-0.12 -0.1,-0.22 -0.22,-0.22l-1.98 0 0 -0.66c0,-0.12 -0.1,-0.22 -0.22,-0.22l-1.32 0 0 -0.66 -0.44 0 0 0.66 -1.32 0c-0.12,0 -0.22,0.1 -0.22,0.22l0 0.66 -1.76 0c-0.12,0 -0.22,0.1 -0.22,0.22l0 7.92c0,0.12 0.1,0.22 0.22,0.22l0.88 0 0 0.66c0,0.12 0.1,0.22 0.22,0.22l0.82 0 -0.59 2.37 0.43 0.11 0.62 -2.47 1.15 0 0 2.42 0.44 0 0 -2.42 1.15 0 0.62 2.47 0.43 -0.11 -0.59 -2.37 0.82 0c0.12,0 0.22,-0.1 0.22,-0.22l0 -0.66 0.66 0c0.12,0 0.22,-0.1 0.22,-0.22l0 -1.1c1.03,-0.43 1.76,-1.45 1.76,-2.64l0 -2.86c0,-1.33 1.09,-2.42 2.42,-2.42l0 -0.44c-1.58,0 -2.86,1.28 -2.86,2.86zm-6.6 -1.98l2.64 0 0 0.44 -2.64 0 0 -0.44zm3.96 9.24l-4.84 0 0 -0.44 4.84 0 0 0.44zm0.88 -2.07c-0.21,0.06 -0.43,0.09 -0.66,0.09l-2.64 0 0 0.44 2.64 0c0.23,0 0.45,-0.03 0.66,-0.08l0 0.74 -0.66 0 -5.28 0 -0.88 0 0 -7.48 1.76 0 3.08 0 1.98 0 0 6.29z"/>
    <path class="fil0" d="M17.35 10.38l0 -1.3c0.24,-0.18 0.44,-0.51 0.44,-1.11 0,-0.92 -0.89,-2.07 -0.93,-2.12 -0.08,-0.11 -0.26,-0.11 -0.35,0 -0.04,0.05 -0.93,1.2 -0.93,2.12 0,0.6 0.2,0.93 0.44,1.11l0 1.3 -0.22 2.63c-0,0.01 -0,0.02 -0,0.03l0.2 4.62c0.01,0.12 0.1,0.21 0.22,0.21l0.92 0c0.12,0 0.21,-0.09 0.22,-0.21l0.2 -4.62c0,-0.01 0,-0.02 -0,-0.03l-0.22 -2.63zm-0.41 7.05l-0.5 0 -0.19 -4.4 0.2 -2.42 0.48 0 0.2 2.42 -0.19 4.4zm-0.47 -7.26l0 -0.9c0.01,0 0.01,0 0.02,0 0.08,0.01 0.15,0.02 0.2,0.02 0.05,0 0.12,-0 0.2,-0.02 0.01,-0 0.01,-0 0.02,-0l0 0.9 -0.44 0zm0.26 -1.32c-0.03,0 -0.05,0 -0.08,0 -0.15,-0.03 -0.56,-0.2 -0.62,-0.75 -0,-0.04 -0.01,-0.08 -0.01,-0.13 0,-0.54 0.42,-1.24 0.66,-1.6 0.24,0.36 0.66,1.06 0.66,1.6 0,0.05 -0,0.09 -0.01,0.13 -0.06,0.55 -0.47,0.72 -0.62,0.75z"/>
    <path class="fil0" d="M10.73 9.65c-0.03,-0.08 -0.11,-0.14 -0.2,-0.14l-2.38 0 2.28 -1.58c0.08,-0.05 0.11,-0.15 0.08,-0.25 -0.03,-0.09 -0.11,-0.15 -0.21,-0.15l-2.86 0 0 0.44 2.16 0 -2.28 1.58c-0.08,0.05 -0.11,0.15 -0.08,0.25 0.03,0.09 0.11,0.15 0.21,0.15l2.55 0 -1.38 1.38c-0.04,0.04 -0.06,0.1 -0.06,0.16l0 1.1 0.44 0 0 -1.01 1.7 -1.7c0.06,-0.06 0.08,-0.16 0.05,-0.24z"/>
   </g>
   <circle class="fil1 str0" cx="11.3" cy="11.3" r="10.97"/>
  </g>
 </g>
</svg>
