<?xml version="1.0" encoding="UTF-8"?>
<!DOCTYPE svg PUBLIC "-//W3C//DTD SVG 1.1//EN" "http://www.w3.org/Graphics/SVG/1.1/DTD/svg11.dtd">
<!-- Creator: CorelDRAW 2019 (64-Bit) -->
<svg xmlns="http://www.w3.org/2000/svg" xml:space="preserve" width="14.7392mm" height="14.7392mm" version="1.1" style="shape-rendering:geometricPrecision; text-rendering:geometricPrecision; image-rendering:optimizeQuality; fill-rule:evenodd; clip-rule:evenodd"
viewBox="0 0 24.24 24.24"
 xmlns:xlink="http://www.w3.org/1999/xlink">
 <defs>
  <style type="text/css">
   <![CDATA[
    .str0 {stroke:#8C5D65;stroke-width:0.7;stroke-miterlimit:22.9256}
    .fil1 {fill:none}
    .fil0 {fill:#8C5D65}
   ]]>
  </style>
 </defs>
 <g id="Layer_x0020_1">
  <metadata id="CorelCorpID_0Corel-Layer"/>
  <g id="_1849088212656">
   <g>
    <path class="fil0" d="M18.85 13.74l-0.46 0 0 -3.48c0,-0.07 -0.03,-0.13 -0.08,-0.17 -0.05,-0.04 -0.11,-0.07 -0.18,-0.06l-0.67 0.08 0 -0.78c0,-0.07 -0.03,-0.13 -0.08,-0.17 -0.05,-0.04 -0.12,-0.06 -0.18,-0.06l-2.76 0.38c0.3,-0.45 0.47,-0.98 0.47,-1.54 0,-1.54 -1.25,-2.78 -2.78,-2.78 -1.54,0 -2.78,1.25 -2.78,2.78 0,0.56 0.16,1.09 0.47,1.54l-2.76 -0.38c-0.07,-0.01 -0.13,0.01 -0.18,0.06 -0.05,0.04 -0.08,0.11 -0.08,0.17l0 0.78 -0.67 -0.08c-0.07,-0.01 -0.13,0.01 -0.18,0.06 -0.05,0.04 -0.08,0.11 -0.08,0.17l0 3.48 -0.46 0c-0.13,0 -0.23,0.1 -0.23,0.23l0 2.78c0,0.13 0.1,0.23 0.23,0.23l0.46 0 0 1.16c0,0.12 0.09,0.22 0.21,0.23l6.03 0.7c0.01,0 0.02,0 0.03,0 0.01,0 0.02,-0 0.03,-0l6.03 -0.7c0.12,-0.01 0.21,-0.11 0.21,-0.23l0 -1.16 0.46 0c0.13,0 0.23,-0.1 0.23,-0.23l0 -2.78c0,-0.13 -0.1,-0.23 -0.23,-0.23zm-1.86 -4.14l0 0.56 -4.64 0.54 0 -0.47 1.56 -0.21 0 0 3.09 -0.42zm-11.37 6.93l0 -2.32 0.46 0c0.64,0 1.16,0.52 1.16,1.16 0,0.64 -0.52,1.16 -1.16,1.16l-0.46 0zm6.27 2.06l-5.57 -0.64 0 -0.97c0.02,-0 0.04,-0.01 0.05,-0.01 0.02,-0 0.04,-0.01 0.06,-0.01 0.03,-0.01 0.06,-0.01 0.09,-0.02 0.02,-0.01 0.04,-0.01 0.06,-0.02 0.03,-0.01 0.06,-0.02 0.09,-0.03 0.02,-0.01 0.04,-0.01 0.05,-0.02 0.03,-0.01 0.07,-0.03 0.1,-0.05 0.01,-0.01 0.02,-0.01 0.03,-0.02 0.04,-0.02 0.09,-0.05 0.13,-0.08 0.01,-0 0.01,-0.01 0.02,-0.02 0.03,-0.02 0.07,-0.05 0.1,-0.07 0.01,-0.01 0.03,-0.02 0.04,-0.03 0.02,-0.02 0.05,-0.04 0.07,-0.07 0.01,-0.01 0.03,-0.03 0.04,-0.04 0.02,-0.02 0.04,-0.04 0.06,-0.07 0.01,-0.02 0.03,-0.03 0.04,-0.05 0.02,-0.02 0.04,-0.05 0.05,-0.07 0.01,-0.02 0.02,-0.04 0.04,-0.05 0.02,-0.02 0.03,-0.05 0.05,-0.07 0.01,-0.02 0.02,-0.04 0.03,-0.06 0.01,-0.03 0.03,-0.05 0.04,-0.08 0.01,-0.02 0.02,-0.04 0.03,-0.06 0.01,-0.03 0.02,-0.06 0.03,-0.08 0.01,-0.02 0.01,-0.04 0.02,-0.06 0.01,-0.03 0.02,-0.06 0.02,-0.09 0,-0.02 0.01,-0.04 0.01,-0.06 0.01,-0.03 0.01,-0.07 0.02,-0.1 0,-0.02 0.01,-0.03 0.01,-0.05 0,-0.05 0.01,-0.1 0.01,-0.16 0,-0.05 -0,-0.11 -0.01,-0.16 -0,-0.02 -0,-0.03 -0.01,-0.05 -0,-0.03 -0.01,-0.07 -0.02,-0.1 -0,-0.02 -0.01,-0.04 -0.01,-0.06 -0.01,-0.03 -0.01,-0.06 -0.02,-0.09 -0.01,-0.02 -0.01,-0.04 -0.02,-0.06 -0.01,-0.03 -0.02,-0.06 -0.03,-0.08 -0.01,-0.02 -0.02,-0.04 -0.03,-0.06 -0.01,-0.03 -0.02,-0.05 -0.04,-0.08 -0.01,-0.02 -0.02,-0.04 -0.03,-0.06 -0.01,-0.03 -0.03,-0.05 -0.05,-0.07 -0.01,-0.02 -0.02,-0.04 -0.04,-0.05 -0.02,-0.02 -0.03,-0.05 -0.05,-0.07 -0.01,-0.02 -0.02,-0.03 -0.04,-0.05 -0.02,-0.02 -0.04,-0.05 -0.06,-0.07 -0.01,-0.01 -0.03,-0.03 -0.04,-0.04 -0.02,-0.02 -0.05,-0.04 -0.07,-0.07 -0.01,-0.01 -0.03,-0.02 -0.04,-0.03 -0.03,-0.03 -0.06,-0.05 -0.1,-0.07 -0.01,-0.01 -0.01,-0.01 -0.02,-0.02 -0.04,-0.03 -0.08,-0.05 -0.13,-0.08 -0.01,-0.01 -0.02,-0.01 -0.03,-0.02 -0.03,-0.02 -0.07,-0.03 -0.1,-0.05 -0.02,-0.01 -0.03,-0.01 -0.05,-0.02 -0.03,-0.01 -0.06,-0.02 -0.09,-0.03 -0.02,-0.01 -0.04,-0.01 -0.06,-0.02 -0.03,-0.01 -0.06,-0.02 -0.09,-0.02 -0.02,-0 -0.04,-0.01 -0.07,-0.01 -0.02,-0 -0.03,-0.01 -0.05,-0.01l0 -3.24 0.67 0.08 0.45 0.05 4.45 0.51 0 7.42zm0 -7.89l-4.64 -0.54 0 -0.56 3.09 0.42 0 0 1.56 0.21 0 0.47zm0.23 -0.9l-1.65 -0.23c-0.43,-0.44 -0.67,-1.01 -0.67,-1.63 0,-1.28 1.04,-2.32 2.32,-2.32 1.28,0 2.32,1.04 2.32,2.32 0,0.62 -0.24,1.19 -0.67,1.63l-1.65 0.23zm5.8 8.15l-5.57 0.64 0 -7.42 4.45 -0.51 0.45 -0.05 0.67 -0.08 0 3.24c-0.79,0.11 -1.39,0.79 -1.39,1.61 0,0.82 0.61,1.49 1.39,1.61l0 0.97zm0.7 -1.42l-0.46 0c-0.64,0 -1.16,-0.52 -1.16,-1.16 0,-0.64 0.52,-1.16 1.16,-1.16l0.46 0 0 2.32z"/>
    <path class="fil0" d="M17.15 11.48c-0.05,-0.04 -0.12,-0.06 -0.18,-0.06l-3.71 0.46c-0.12,0.01 -0.2,0.11 -0.2,0.23l0 1.86c0,0.07 0.03,0.13 0.08,0.17 0.04,0.04 0.1,0.06 0.15,0.06 0.01,0 0.02,-0 0.03,-0l3.71 -0.46c0.12,-0.01 0.2,-0.11 0.2,-0.23l0 -1.86c0,-0.07 -0.03,-0.13 -0.08,-0.17zm-0.39 1.83l-3.25 0.41 0 -1.39 3.25 -0.41 0 1.39z"/>
   </g>
   <circle class="fil1 str0" cx="12.12" cy="12.12" r="11.77"/>
  </g>
 </g>
</svg>
